<svg width="44" height="19" viewBox="0 0 44 19" fill="none" xmlns="http://www.w3.org/2000/svg">
<path d="M8.03964 2.36587C7.52402 2.98565 6.69885 3.47466 5.87376 3.40474C5.77063 2.56673 6.17454 1.67618 6.64728 1.12615C7.16291 0.488922 8.06542 0.0349168 8.79598 0C8.88192 0.873007 8.54667 1.72856 8.03964 2.36587ZM8.78738 3.57068C7.59268 3.50084 6.56994 4.26028 6.00267 4.26028C5.42688 4.26028 4.55874 3.60559 3.61335 3.62305C2.38435 3.64051 1.24121 4.34758 0.613783 5.47382C-0.675452 7.72621 0.278626 11.0612 1.52481 12.8945C2.13505 13.8024 2.8656 14.7976 3.82819 14.7627C4.7393 14.7278 5.10024 14.1604 6.20041 14.1604C7.30909 14.1604 7.62714 14.7627 8.58973 14.7453C9.58669 14.7278 10.2141 13.8374 10.8244 12.9294C11.5205 11.8993 11.8041 10.8953 11.8213 10.8429C11.8041 10.8254 9.89615 10.0834 9.87896 7.84842C9.86178 5.9802 11.383 5.08973 11.4518 5.03736C10.5922 3.74526 9.25153 3.60559 8.78738 3.57068ZM15.689 1.03886V14.6493H17.7689V9.99615H20.6481C23.2781 9.99615 25.126 8.16284 25.126 5.50882C25.126 2.85488 23.3125 1.03895 20.7169 1.03895H15.6889L15.689 1.03886ZM17.7689 2.81988H20.1668C21.9717 2.81988 23.0031 3.79764 23.0031 5.51746C23.0031 7.23729 21.9717 8.22386 20.1582 8.22386H17.7689V2.81988ZM28.9249 14.754C30.2313 14.754 31.4431 14.0819 31.9932 13.0167H32.0361V14.6492H33.9614V7.87461C33.9614 5.91036 32.4144 4.64446 30.0335 4.64446C27.8247 4.64446 26.1917 5.92782 26.1315 7.69129H28.0052C28.1599 6.8532 28.9248 6.30318 29.9734 6.30318C31.2454 6.30318 31.9588 6.90558 31.9588 8.01436V8.76507L29.3631 8.9222C26.948 9.07059 25.6417 10.0746 25.6417 11.8207C25.6417 13.5842 26.991 14.754 28.9249 14.754ZM29.4835 13.1389C28.3749 13.1389 27.67 12.5977 27.67 11.7683C27.67 10.9128 28.349 10.4152 29.6468 10.3366L31.9588 10.1882V10.9564C31.9588 12.231 30.8931 13.1389 29.4835 13.1389H29.4835ZM36.5312 18.3509C38.5596 18.3509 39.5136 17.5652 40.3472 15.1818L44 4.77539H41.8857L39.4362 12.8159H39.3933L36.9438 4.77539H34.7693L38.2931 14.6842L38.104 15.2866C37.786 16.308 37.2703 16.7009 36.3507 16.7009C36.1874 16.7009 35.8695 16.6834 35.7405 16.666V18.2985C35.8608 18.3334 36.3764 18.3509 36.5312 18.3509Z" fill="#1A1A1A"/>
</svg>
