<svg width="17" height="15" viewBox="0 0 17 15" fill="none" xmlns="http://www.w3.org/2000/svg">
<path d="M11.6719 0C10.2593 0 9.00562 0.557578 8.15625 1.51594C7.30688 0.557578 6.0532 0 4.64062 0C3.41031 0.00148858 2.23082 0.490888 1.36085 1.36085C0.490888 2.23082 0.00148858 3.41031 0 4.64062C0 9.72703 7.43977 13.7911 7.75617 13.962C7.87913 14.0282 8.0166 14.0628 8.15625 14.0628C8.2959 14.0628 8.43337 14.0282 8.55633 13.962C8.87273 13.7911 16.3125 9.72703 16.3125 4.64062C16.311 3.41031 15.8216 2.23082 14.9516 1.36085C14.0817 0.490888 12.9022 0.00148858 11.6719 0ZM11.2859 10.0097C10.3066 10.8407 9.25977 11.5886 8.15625 12.2456C7.05273 11.5886 6.0059 10.8407 5.02664 10.0097C3.50297 8.70258 1.6875 6.70922 1.6875 4.64062C1.6875 3.85741 1.99863 3.10627 2.55245 2.55245C3.10627 1.99863 3.85741 1.6875 4.64062 1.6875C5.89219 1.6875 6.93984 2.34844 7.37508 3.41297C7.43843 3.56815 7.54656 3.70095 7.68569 3.79443C7.82482 3.88792 7.98863 3.93784 8.15625 3.93784C8.32387 3.93784 8.48768 3.88792 8.62681 3.79443C8.76594 3.70095 8.87407 3.56815 8.93742 3.41297C9.37266 2.34844 10.4203 1.6875 11.6719 1.6875C12.4551 1.6875 13.2062 1.99863 13.76 2.55245C14.3139 3.10627 14.625 3.85741 14.625 4.64062C14.625 6.70922 12.8095 8.70258 11.2859 10.0097Z" fill="#1A1A1A"/>
</svg>
